<svg version="1.2" xmlns="http://www.w3.org/2000/svg" viewBox="0 0 376 481" width="376" height="481">
	<style>
		.s0 { fill: #000000 } 
		.s1 { fill: #9d9d9c } 
	</style>
	<g id="Calque_2">
	</g>
	<g id="g13">
		<path id="path5" class="s0" d="m193.12 382.87c-0.19-0.19-0.38-0.38-0.38-0.57-0.19-0.19-0.19-0.19-0.38-0.38-0.19 0-0.19-0.18-0.37-0.18-0.19-0.19-0.38-0.19-0.57-0.38-0.19 0-0.38-0.19-0.57-0.19-0.19 0-0.38-0.19-0.38-0.19-0.18 0-0.37 0-0.56-0.19q-0.29 0-0.57 0-0.28 0-0.57 0-0.28 0-0.56 0-0.29 0-0.57 0c-0.19 0-0.38 0-0.57 0.19-0.19 0-0.38 0.19-0.38 0.19-0.18 0-0.37 0.19-0.56 0.19-0.19 0-0.38 0.19-0.57 0.38-0.19 0-0.19 0.18-0.38 0.18-0.19 0.19-0.19 0.19-0.38 0.38-0.18 0.19-0.37 0.38-0.37 0.38l-15.31 19.09c-1.89 2.45-1.51 5.85 0.95 7.74 0.94 0.76 2.26 1.14 3.4 1.14 1.7 0 3.21-0.76 4.34-2.08l0.19-0.19c5.67-6.99 16.25-6.99 21.73 0l0.19 0.19c1.14 1.32 2.65 2.08 4.35 2.08 1.13 0 2.46-0.38 3.4-1.14 2.46-1.89 2.83-5.48 0.95-7.74z"/>
		<path id="path7" class="s0" d="m167.61 60.11c-7.75 0-14.17 6.04-14.55 13.79l-28.91 10.58c-1.52 0.57-2.65 1.89-2.65 3.59v18.33h-23.24c-1.7-6.23-7.18-10.77-13.99-10.77-7.93 0-14.55 6.43-14.55 14.55 0 7.94 6.43 14.55 14.55 14.55 6.81 0 12.29-4.53 13.99-10.77h27.02c2.08 0 3.78-1.7 3.78-3.78v-19.46l25.51-9.45c2.46 4.73 7.37 7.94 12.85 7.94 7.94 0 14.55-6.43 14.55-14.55 0.19-7.94-6.42-14.55-14.36-14.55z"/>
		<path id="path9" class="s1" d="m137 330.71c-4.73-1.7-9.26-3.4-13.61-5.29-3.21-1.51-6.43-3.02-9.45-4.53 7.18 7.18 24.57 20.03 43.28 20.41 1.13-1.33 2.07-2.65 2.83-4.35-2.83-0.57-5.67-1.13-8.5-1.89-5.11-1.32-9.83-2.65-14.55-4.35z"/>
		<path id="path11" class="s0" d="m374.15 198.81c0-8.88-0.56-17.76-1.89-26.27 0-0.56-0.18-1.13-0.18-1.7-11.53-75.02-68.41-136.62-143.24-153.06-1.89-8.51-9.45-14.93-18.52-14.93-10.59 0-19.09 8.5-19.09 19.08 0 9.07 6.42 16.63 14.93 18.52v69.73c0 1.14 0.57 2.27 1.51 3.03 0.57 0.38 1.32 0.56 2.08 0.56 0.38 0 0.94 0 1.32-0.18l27.97-10.59c1.89 2.84 4.72 4.73 8.13 5.67v32.88c-14.18 17.39-31.75 33.07-50.46 47.06l-21.35-49.51c3.96-2.65 6.61-7 6.61-12.1 0-7.93-6.42-14.55-14.55-14.55-7.94 0-14.55 6.43-14.55 14.55 0 7.94 6.42 14.55 14.55 14.55 0.19 0 0.57 0 0.76 0l22.29 51.59c-13.03 9.45-26.45 17.95-39.68 25.7l-63.49-19.08c-0.76-0.19-1.52-0.19-2.27 0.19l-18.9 7.36c-2.64-3.59-6.8-5.85-11.72-5.85-7.93 0-14.55 6.42-14.55 14.55 0 7.93 6.43 14.55 14.55 14.55 7.94 0 14.56-6.43 14.56-14.55 0-0.57-0.19-1.14-0.19-1.7l17.76-7 55.37 16.63c-47.24 26.46-89.57 41.77-96.57 44.22l-3.4 1.14c-3.02-2.27-6.8-3.59-10.96-3.59q-0.28 0-0.56 0c-8.89-20.98-13.42-43.84-13.42-66.71 0-11.34 1.13-22.49 3.21-33.26h82.96c1.7 6.24 7.18 10.77 13.98 10.77 7.94 0 14.55-6.42 14.55-14.55 0-7.93-6.42-14.55-14.55-14.55-6.8 0-12.28 4.54-13.98 10.77h-81.26c15.31-62.17 64.44-111.87 127.94-126.61 3.4 5.48 9.44 9.26 16.25 9.26 10.58 0 19.08-8.5 19.08-19.08 0-10.59-8.5-19.09-19.08-19.09-9.26 0-16.82 6.61-18.71 15.12-83.34 18.89-144.38 93.92-144.38 180.84 0 24.76 4.92 49.51 14.56 72.19-3.59 3.4-5.67 8.31-5.67 13.61 0 8.5 5.48 15.49 13.04 18.14v74.45c0 1.32 0.37 2.65 1.13 3.78l4.16 2.83 56.5 39.88v47.62c0 3.97 3.21 7.18 7.18 7.18h188.97c3.97 0 7.18-3.21 7.18-7.18v-47.62l56.69-39.88 4.16-3.02c0.76-1.13 1.13-2.46 1.13-3.78v-75.02c7-2.83 11.91-9.64 11.91-17.57 0-4.92-1.89-9.45-4.91-12.85 10.01-22.49 15.11-47.44 15.11-72.57zm-214.67-183.11c1.7-1.89 4.16-3.03 6.81-3.03 5.1 0 9.26 4.16 9.26 9.26 0 5.11-4.16 9.26-9.26 9.26-1.89 0-3.59-0.56-5.11-1.51-2.45-1.7-4.15-4.53-4.15-7.56 0-2.64 0.94-4.91 2.45-6.42zm41.58 6.05c0-5.11 4.15-9.26 9.26-9.26 2.64 0 4.91 1.13 6.61 2.83 1.51 1.7 2.46 3.78 2.46 6.24 0 3.02-1.52 5.85-3.97 7.56-1.51 1.13-3.21 1.7-5.29 1.7-4.92 0.18-9.07-3.97-9.07-9.07zm35.52 72.75c0 0.57 0.19 0.94 0.19 1.32l-23.05 8.69v-64.25c5.67-0.94 10.39-4.34 13.04-9.07 20.22 4.54 39.11 12.66 55.93 23.81-0.19 27.97-10.96 53.67-27.97 76.92v-23.44c6.24-1.7 10.78-7.18 10.78-13.98 0-7.94-6.43-14.55-14.56-14.55-7.93 0.19-14.36 6.61-14.36 14.55zm-205.41 199.17c-2.27 0-4.34-0.94-6.05-2.26-1.89-1.7-3.21-4.16-3.21-6.81 0-1.13 0.19-2.26 0.57-3.21 1.32-3.4 4.72-5.86 8.5-5.86 1.7 0 3.21 0.57 4.54 1.33 2.64 1.51 4.53 4.53 4.53 7.93 0 1.7-0.56 3.22-1.32 4.54-1.32 2.64-4.16 4.34-7.56 4.34zm315.58-28.15q-0.85 0-1.7 0c-10.58 0-19.08 8.5-19.08 19.08 0 8.13 5.1 15.12 12.47 17.77v69.54l-59.53 41.95c-1.89 1.32-3.02 3.59-3.02 5.86v40.06c0 2.27-1.89 4.16-4.16 4.16h-22.11c-2.27 0-4.16-1.89-4.16-4.16v-14.36c0-3.78-2.64-7.18-6.42-7.56-4.35-0.38-7.94 3.02-7.94 7.18v14.93c0 2.27-1.89 4.16-4.15 4.16h-27.03c-2.27 0-4.15-1.89-4.15-4.16v-22.11c0-3.78-2.65-7.18-6.43-7.56-4.35-0.38-7.94 3.02-7.94 7.18v22.68c0 2.27-1.89 4.16-4.15 4.16h-27.03c-2.26 0-4.15-1.89-4.15-4.16v-14.74c0-3.78-2.65-7.18-6.43-7.56-4.35-0.38-7.94 3.02-7.94 7.18v14.93c0 2.27-1.89 4.16-4.15 4.16h-22.11c-2.27 0-4.16-1.89-4.16-4.16v-40.06c0-2.27-1.13-4.54-3.02-5.86l-59.34-41.95v-70.3c6.61-3.02 11.15-9.64 11.15-17.38 0-1.14-0.19-2.27-0.38-3.41 7.56-2.64 65.2-23.24 121.89-58.58 76.72-47.81 119.24-102.04 124.15-157.79 33.07 26.65 55.94 65.2 62.55 108.47-0.94 94.68-165.92 153.07-167.62 153.63-0.37 0.19-1.32 0.38-2.08 0.76-2.07-0.38-4.15-0.76-6.42-1.13-1.51-0.38-3.21-0.57-4.72-0.95-2.46-0.38-4.92-0.94-7.37-1.51-0.38-0.19-0.95-0.19-1.33-0.19q-1.41-0.28-2.83-0.57c-1.14-0.18-2.27-0.56-3.4-0.75-2.65-0.57-5.29-1.14-7.75-1.89-4.73-1.14-9.26-2.46-13.8-3.59-4.34-1.32-8.88-2.46-13.04-3.78-0.18 0-0.18 0-0.37 0-3.22-0.95-6.24-1.89-9.26-3.02-0.95-0.38-2.08-0.76-3.03-0.95-1.51-0.57-2.83-0.94-4.15-1.32-2.46-0.76-4.73-1.51-6.81-2.46h-0.19q-5.1-1.7-9.07-3.4c-2.83-1.13-5.29-2.08-7.18-2.84-1.89-0.94-3.59-1.51-4.53-2.07-1.14-0.57-1.7-0.76-1.7-0.76 0 0 0.37 0.57 1.13 1.32 0.76 0.95 1.89 2.27 3.59 3.78 1.51 1.51 3.59 3.4 6.05 5.29 2.45 1.89 5.29 3.97 8.31 6.05 0 0 0 0 0.19 0-1.13 3.78-1.89 7.94-1.89 12.09 0 21.74 17.77 39.5 39.5 39.5 16.82 0 31.18-10.58 36.85-25.51 1.89 0.19 3.96 0.38 5.85 0.57 3.41 0.18 6.62 0.18 9.64 0.18 0.19 0 0.38 0.19 0.57 0.19l31.93 32.51c8.13 8.12 20.79 9.45 30.24 3.21l49.89-27.97c4.35-2.83 7.18-7.75 7.18-13.04v-57.44c19.27-15.31 36.66-33.45 48-54.05q-3.12 22.39-11.91 42.52zm5.67 24.56c-1.7 2.08-4.34 3.59-7.18 3.59-2.64 0-4.91-1.13-6.61-2.83-1.51-1.7-2.46-3.78-2.46-6.24 0-3.96 2.46-7.37 6.05-8.5 0.94-0.38 2.08-0.57 3.21-0.57 4.35 0 8.13 3.22 9.07 7.37 0.19 0.57 0.19 1.14 0.19 1.89-0.38 1.89-1.13 3.78-2.27 5.29zm-192.37 46.87c-0.76 1.51-1.89 3.02-2.83 4.35-4.54 5.29-11.34 8.69-18.9 8.69-7.56 0-14.36-3.4-18.9-8.69-3.78-4.35-5.86-10.02-5.86-16.07 0-1.51 0.19-2.83 0.38-4.34 3.02 1.51 6.24 3.02 9.45 4.53 4.35 1.89 8.88 3.78 13.61 5.29 4.72 1.7 9.63 3.03 14.55 4.35 2.83 0.76 5.67 1.32 8.5 1.89z"/>
	</g>
</svg>